<svg width="366" height="59" viewBox="0 0 366 59" fill="none" xmlns="http://www.w3.org/2000/svg">
<g filter="url(#filter0_d_28212_327)">
<rect x="4" width="358" height="50.152" rx="2" fill="black"/>
<path d="M148.475 22.6628C147.989 19.9782 145.841 18.393 143.208 18.393C139.858 18.393 137.429 20.9753 137.429 25.1174C137.429 29.2594 139.858 31.8418 143.208 31.8418C145.841 31.8418 147.989 30.2566 148.475 27.5719H146.89C146.506 29.3873 144.946 30.3589 143.208 30.3589C140.83 30.3589 138.963 28.518 138.963 25.1174C138.963 21.7168 140.83 19.8759 143.208 19.8759C144.946 19.8759 146.506 20.8475 146.89 22.6628H148.475ZM154.82 31.8674C157.48 31.8674 159.269 29.8475 159.269 26.8049C159.269 23.7367 157.48 21.7168 154.82 21.7168C152.161 21.7168 150.372 23.7367 150.372 26.8049C150.372 29.8475 152.161 31.8674 154.82 31.8674ZM154.82 30.5123C152.801 30.5123 151.88 28.7736 151.88 26.8049C151.88 24.8361 152.801 23.0719 154.82 23.0719C156.84 23.0719 157.761 24.8361 157.761 26.8049C157.761 28.7736 156.84 30.5123 154.82 30.5123ZM162.293 21.8447H160.554L163.673 26.7538L160.554 31.6628H162.293L164.645 27.8532L166.997 31.6628H168.736L165.566 26.7538L168.736 21.8447H166.997L164.645 25.8589L162.293 21.8447ZM170.888 35.3447H172.397V30.1543H172.525C172.857 30.6913 173.496 31.8674 175.388 31.8674C177.843 31.8674 179.556 29.8986 179.556 26.7793C179.556 23.6856 177.843 21.7168 175.363 21.7168C173.445 21.7168 172.857 22.893 172.525 23.4043H172.346V21.8447H170.888V35.3447ZM172.371 26.7538C172.371 24.5549 173.343 23.0719 175.184 23.0719C177.102 23.0719 178.048 24.6827 178.048 26.7538C178.048 28.8503 177.076 30.5123 175.184 30.5123C173.369 30.5123 172.371 28.9782 172.371 26.7538ZM184.746 31.893C186.46 31.893 187.354 30.9725 187.661 30.3333H187.738V31.6628H189.246V25.1941C189.246 22.0748 186.869 21.7168 185.616 21.7168C184.133 21.7168 182.445 22.2282 181.678 24.018L183.11 24.5293C183.442 23.8134 184.229 23.0464 185.667 23.0464C187.054 23.0464 187.738 23.7814 187.738 25.0407V25.0918C187.738 25.8205 186.996 25.7566 185.207 25.9867C183.385 26.2232 181.397 26.6259 181.397 28.8759C181.397 30.7935 182.88 31.893 184.746 31.893ZM184.977 30.5378C183.775 30.5378 182.906 30.0009 182.906 28.9526C182.906 27.802 183.954 27.4441 185.13 27.2907C185.769 27.214 187.482 27.035 187.738 26.7282V28.1089C187.738 29.3361 186.766 30.5378 184.977 30.5378ZM193.508 21.8447H192V31.6628H193.508V27.4697H198.213V31.6628H199.721V21.8447H198.213V26.0634H193.508V21.8447ZM203.985 29.4384V21.8447H202.476V31.6628H204.241L208.945 24.0691V31.6628H210.454V21.8447H208.715L203.985 29.4384ZM211.881 23.2509H215.128V31.6628H216.636V23.2509H219.858V21.8447H211.881V23.2509ZM223.567 25.3986V21.8447H222.058V31.6628H226.175C228.476 31.6628 229.729 30.2566 229.729 28.4924C229.729 26.7026 228.476 25.3986 226.175 25.3986H223.567ZM223.567 26.8049H226.175C227.37 26.8049 228.22 27.5336 228.22 28.5691C228.22 29.5599 227.37 30.2566 226.175 30.2566H223.567V26.8049Z" fill="white"/>
</g>
<defs>
<filter id="filter0_d_28212_327" x="0" y="0" width="366" height="58.1519" filterUnits="userSpaceOnUse" color-interpolation-filters="sRGB">
<feFlood flood-opacity="0" result="BackgroundImageFix"/>
<feColorMatrix in="SourceAlpha" type="matrix" values="0 0 0 0 0 0 0 0 0 0 0 0 0 0 0 0 0 0 127 0" result="hardAlpha"/>
<feOffset dy="4"/>
<feGaussianBlur stdDeviation="2"/>
<feComposite in2="hardAlpha" operator="out"/>
<feColorMatrix type="matrix" values="0 0 0 0 0 0 0 0 0 0 0 0 0 0 0 0 0 0 0.25 0"/>
<feBlend mode="normal" in2="BackgroundImageFix" result="effect1_dropShadow_28212_327"/>
<feBlend mode="normal" in="SourceGraphic" in2="effect1_dropShadow_28212_327" result="shape"/>
</filter>
</defs>
</svg>
